<?xml version="1.0" encoding="UTF-8" standalone="no"?>
<!DOCTYPE svg PUBLIC "-//W3C//DTD SVG 1.1//EN" "http://www.w3.org/Graphics/SVG/1.1/DTD/svg11.dtd">
<svg width="100%" height="100%" viewBox="0 0 1270 710" version="1.1" xmlns="http://www.w3.org/2000/svg" xmlns:xlink="http://www.w3.org/1999/xlink" xml:space="preserve" xmlns:serif="http://www.serif.com/" style="fill-rule:evenodd;clip-rule:evenodd;stroke-linejoin:round;stroke-miterlimit:2;">
    <g transform="matrix(1,0,0,1,0,-13.08)">
        <g transform="matrix(0.99187,0,0,0.984812,0,13.08)">
            <rect id="ArtBoard1" x="0" y="0" width="1280" height="720" style="fill:none;"/>
            <g id="ArtBoard11" serif:id="ArtBoard1">
                <g transform="matrix(6.177,0,0,6.22127,-195.748,-130.315)">
                    <g transform="matrix(1,0,0,1,86.9583,97.136)">
                        <path d="M0,-36.937C5.182,-36.937 8.927,-35.192 12.416,-32.166C12.877,-31.755 12.877,-31.14 12.467,-30.729L10.209,-28.42C9.85,-27.959 9.388,-27.959 8.927,-28.42C6.516,-30.524 3.232,-31.858 0.052,-31.858C-7.285,-31.858 -12.826,-25.702 -12.826,-18.52C-12.826,-11.337 -7.233,-5.232 0.103,-5.232C3.848,-5.232 6.464,-6.721 8.927,-8.618C9.388,-8.978 9.85,-8.926 10.158,-8.669L12.518,-6.36C12.928,-6.002 12.825,-5.335 12.467,-4.976C8.978,-1.59 4.566,0 0,0C-10.261,0 -18.52,-8.156 -18.52,-18.417C-18.52,-28.677 -10.261,-36.937 0,-36.937" style="fill:rgb(152,156,163);fill-rule:nonzero;"/>
                    </g>
                    <g transform="matrix(1,0,0,1,104.71,95.6487)">
                        <path d="M0,-33.962C0,-34.475 0.41,-34.937 0.975,-34.937L4.36,-34.937C4.874,-34.937 5.335,-34.475 5.335,-33.962L5.335,-3.796L19.238,-3.796C19.802,-3.796 20.212,-3.335 20.212,-2.822L20.212,0C20.212,0.513 19.802,0.975 19.238,0.975L0.975,0.975C0.41,0.975 0,0.513 0,0L0,-33.962Z" style="fill:rgb(152,156,163);fill-rule:nonzero;"/>
                    </g>
                    <g transform="matrix(1,0,0,1,143.699,65.3291)">
                        <path d="M0,26.677C7.337,26.677 13.339,20.727 13.339,13.39C13.339,6.105 7.337,0 0,0C-7.284,0 -13.286,6.105 -13.286,13.39C-13.286,20.727 -7.284,26.677 0,26.677M0,-5.13C10.261,-5.13 18.47,3.13 18.47,13.39C18.47,23.651 10.261,31.807 0,31.807C-10.26,31.807 -18.416,23.651 -18.416,13.39C-18.416,3.13 -10.26,-5.13 0,-5.13" style="fill:rgb(152,156,163);fill-rule:nonzero;"/>
                    </g>
                    <g transform="matrix(1,0,0,1,166.991,96.1607)">
                        <path d="M0,-34.474C0,-34.987 0.463,-35.449 0.976,-35.449L4.413,-35.449C4.977,-35.449 5.388,-34.987 5.388,-34.474L5.388,-13.287C5.388,-8.157 8.671,-4.155 13.903,-4.155C19.187,-4.155 22.522,-8.105 22.522,-13.184L22.522,-34.474C22.522,-34.987 22.933,-35.449 23.497,-35.449L26.934,-35.449C27.447,-35.449 27.908,-34.987 27.908,-34.474L27.908,-12.927C27.908,-5.129 22.009,0.975 13.903,0.975C5.849,0.975 0,-5.129 0,-12.927L0,-34.474Z" style="fill:rgb(152,156,163);fill-rule:nonzero;"/>
                    </g>
                    <g transform="matrix(1,0,0,1,214.344,65.5842)">
                        <path d="M0,26.166C7.542,26.166 13.03,20.625 13.03,13.032C13.03,5.491 7.542,0.002 0,0.002L-6.772,0.002L-6.772,26.166L0,26.166ZM-12.004,-3.897C-12.004,-4.41 -11.595,-4.873 -11.081,-4.873L0.718,-4.873C10.619,-4.873 18.726,3.183 18.726,13.032C18.726,22.985 10.619,31.039 0.718,31.039L-11.081,31.039C-11.595,31.039 -12.004,30.577 -12.004,30.064L-12.004,-3.897Z" style="fill:rgb(152,156,163);fill-rule:nonzero;"/>
                    </g>
                    <g transform="matrix(1,0,0,1,92.614,50.3391)">
                        <path d="M0,-12.646L2.491,-12.646L2.724,-10.894L2.808,-10.894C3.969,-12.023 5.288,-12.962 7.062,-12.962C9.837,-12.962 11.051,-11.084 11.051,-7.812L11.051,0.316L8.012,0.316L8.012,-7.421C8.012,-9.553 7.399,-10.355 5.995,-10.355C4.855,-10.355 4.106,-9.796 3.04,-8.741L3.04,0.316L0,0.316L0,-12.646Z" style="fill:rgb(237,125,14);fill-rule:nonzero;"/>
                    </g>
                    <g transform="matrix(1,0,0,1,114.314,41.1654)">
                        <path d="M0,6.017L0,3.104C-3.515,3.547 -4.686,4.466 -4.686,5.774C-4.686,6.919 -3.905,7.421 -2.817,7.421C-1.763,7.421 -0.96,6.903 0,6.017M-7.62,6.007C-7.62,3.23 -5.319,1.784 0,1.215C-0.042,-0.179 -0.601,-1.34 -2.354,-1.34C-3.641,-1.34 -4.854,-0.759 -5.995,-0.063L-7.114,-2.089C-5.689,-2.987 -3.852,-3.789 -1.794,-3.789C1.446,-3.789 3.04,-1.794 3.04,1.816L3.04,9.49L0.549,9.49L0.317,8.054L0.233,8.054C-0.928,9.046 -2.258,9.806 -3.789,9.806C-6.058,9.806 -7.62,8.265 -7.62,6.007" style="fill:rgb(237,125,14);fill-rule:nonzero;"/>
                    </g>
                    <g transform="matrix(1,0,0,1,121.005,50.3391)">
                        <path d="M0,-12.646L2.491,-12.646L2.723,-10.894L2.808,-10.894C3.969,-12.023 5.289,-12.962 7.062,-12.962C9.837,-12.962 11.051,-11.084 11.051,-7.812L11.051,0.316L8.011,0.316L8.011,-7.421C8.011,-9.553 7.399,-10.355 5.996,-10.355C4.855,-10.355 4.106,-9.796 3.04,-8.741L3.04,0.316L0,0.316L0,-12.646Z" style="fill:rgb(237,125,14);fill-rule:nonzero;"/>
                    </g>
                    <g transform="matrix(1,0,0,1,144.13,44.1638)">
                        <path d="M0,0.021C0,-2.576 -1.14,-4.307 -3.039,-4.307C-4.939,-4.307 -6.079,-2.576 -6.079,0.021C-6.079,2.617 -4.939,4.327 -3.039,4.327C-1.14,4.327 0,2.617 0,0.021M-9.204,0.021C-9.204,-4.296 -6.269,-6.787 -3.039,-6.787C0.19,-6.787 3.125,-4.296 3.125,0.021C3.125,4.316 0.19,6.808 -3.039,6.808C-6.269,6.808 -9.204,4.316 -9.204,0.021" style="fill:rgb(237,125,14);fill-rule:nonzero;"/>
                    </g>
                    <g transform="matrix(1,0,0,1,149.349,35.6086)">
                        <path d="M0,12.835L1.784,10.735C3.02,11.912 4.677,12.703 6.281,12.703C8.223,12.703 9.288,11.821 9.288,10.476C9.288,9.057 8.175,8.602 6.607,7.938L4.249,6.914C2.55,6.207 0.76,4.861 0.76,2.338C0.76,-0.412 3.188,-2.528 6.555,-2.528C8.571,-2.528 10.523,-1.694 11.875,-0.327L10.302,1.615C9.204,0.681 8.033,0.132 6.555,0.132C4.919,0.132 3.853,0.897 3.853,2.159C3.853,3.515 5.167,4.016 6.598,4.602L8.925,5.578C10.978,6.434 12.413,7.731 12.413,10.233C12.413,13.031 10.091,15.363 6.218,15.363C3.885,15.363 1.637,14.444 0,12.835" style="fill:rgb(237,125,14);fill-rule:nonzero;"/>
                    </g>
                    <g transform="matrix(1,0,0,1,164.416,38.8449)">
                        <path d="M0,7.44L0,1.266L-1.847,1.266L-1.847,-1.015L0.158,-1.152L0.517,-4.687L3.039,-4.687L3.039,-1.152L6.343,-1.152L6.343,1.266L3.039,1.266L3.039,7.435C3.039,8.96 3.631,9.709 4.876,9.709C5.319,9.709 5.847,9.562 6.227,9.414L6.744,11.652C6.037,11.884 5.135,12.127 4.095,12.127C1.107,12.127 0,10.237 0,7.44" style="fill:rgb(237,125,14);fill-rule:nonzero;"/>
                    </g>
                    <g transform="matrix(1,0,0,1,173.488,50.3391)">
                        <path d="M0,-12.646L2.49,-12.646L2.724,-10.334L2.808,-10.334C3.731,-12.023 5.103,-12.962 6.491,-12.962C7.151,-12.962 7.567,-12.878 7.959,-12.699L7.431,-10.06C6.977,-10.186 6.639,-10.271 6.101,-10.271C5.066,-10.271 3.82,-9.563 3.04,-7.59L3.04,0.316L0,0.316L0,-12.646Z" style="fill:rgb(237,125,14);fill-rule:nonzero;"/>
                    </g>
                    <g transform="matrix(1,0,0,1,190.907,45.4092)">
                        <path d="M0,-2.47C0,-4.465 -0.887,-5.679 -2.66,-5.679C-4.169,-5.679 -5.499,-4.549 -5.763,-2.47L0,-2.47ZM-8.697,-1.224C-8.697,-5.436 -5.773,-8.032 -2.723,-8.032C0.781,-8.032 2.628,-5.499 2.628,-1.879C2.628,-1.298 2.564,-0.718 2.497,-0.402L-5.731,-0.402C-5.479,1.9 -4,3.209 -1.911,3.209C-0.802,3.209 0.148,2.86 1.098,2.269L2.132,4.158C0.897,4.992 -0.665,5.562 -2.312,5.562C-5.89,5.562 -8.697,3.05 -8.697,-1.224" style="fill:rgb(237,125,14);fill-rule:nonzero;"/>
                    </g>
                    <g transform="matrix(1,0,0,1,203.05,41.1654)">
                        <path d="M0,6.017L0,3.104C-3.515,3.547 -4.686,4.466 -4.686,5.774C-4.686,6.919 -3.905,7.421 -2.817,7.421C-1.763,7.421 -0.96,6.903 0,6.017M-7.62,6.007C-7.62,3.23 -5.319,1.784 0,1.215C-0.042,-0.179 -0.602,-1.34 -2.354,-1.34C-3.642,-1.34 -4.854,-0.759 -5.995,-0.063L-7.114,-2.089C-5.688,-2.987 -3.853,-3.789 -1.794,-3.789C1.446,-3.789 3.04,-1.794 3.04,1.816L3.04,9.49L0.55,9.49L0.317,8.054L0.232,8.054C-0.929,9.046 -2.259,9.806 -3.789,9.806C-6.058,9.806 -7.62,8.265 -7.62,6.007" style="fill:rgb(237,125,14);fill-rule:nonzero;"/>
                    </g>
                    <g transform="matrix(1,0,0,1,209.741,50.3391)">
                        <path d="M0,-12.646L2.49,-12.646L2.724,-10.877L2.808,-10.877C3.905,-12.023 5.161,-12.962 6.786,-12.962C8.687,-12.962 9.769,-12.097 10.364,-10.641C11.604,-11.96 12.888,-12.962 14.534,-12.962C17.268,-12.962 18.534,-11.084 18.534,-7.812L18.534,0.316L15.494,0.316L15.494,-7.421C15.494,-9.553 14.861,-10.355 13.499,-10.355C12.676,-10.355 11.79,-9.827 10.786,-8.741L10.786,0.316L7.747,0.316L7.747,-7.421C7.747,-9.553 7.113,-10.355 5.752,-10.355C4.95,-10.355 4.042,-9.827 3.04,-8.741L3.04,0.316L0,0.316L0,-12.646Z" style="fill:rgb(237,125,14);fill-rule:nonzero;"/>
                    </g>
                    <g transform="matrix(1,0,0,1,76.8855,96.7121)">
                        <path d="M0,-66.309C0.676,-66.444 1.031,-66.281 1.135,-65.732L2.104,-61.13C2.289,-60.525 2.043,-60.226 1.356,-60.097L0.944,-60.007L0.778,-59.971C-18.778,-55.619 -32.955,-37.933 -32.955,-17.851C-32.955,-12.01 -31.774,-6.391 -29.623,-1.248L-29.497,-0.89C-29.337,-0.409 -29.627,0.122 -30.116,0.122L-35.226,0.118C-35.819,0.135 -36.079,-0.174 -36.313,-0.9C-38.258,-6.219 -39.313,-11.935 -39.313,-17.851C-39.313,-29.213 -35.368,-40.311 -28.205,-49.103C-21.171,-57.736 -11.349,-63.802 -0.537,-66.192C-0.496,-66.201 -0.455,-66.21 -0.414,-66.219" style="fill:rgb(152,156,163);fill-rule:nonzero;"/>
                    </g>
                    <g transform="matrix(1,0,0,1,56.3704,45.7316)">
                        <path d="M0,49.877C-2.729,44.874 -4.264,39.154 -4.264,33.129C-4.264,16.521 7.296,2.333 23.403,-1.08L23.516,-1.102C24.192,-1.238 24.546,-1.074 24.65,-0.525L25.619,4.077C25.805,4.681 25.559,4.98 24.872,5.11L24.823,5.12C11.597,7.874 2.095,19.506 2.095,33.129C2.095,39.293 4.058,45.065 7.437,49.789L7.615,50.091C7.834,50.533 7.415,51.099 7.057,51.103L1.375,51.099C0.782,51.115 0.526,50.892 0.104,50.08L0,49.877Z" style="fill:rgb(152,156,163);fill-rule:nonzero;"/>
                    </g>
                    <g transform="matrix(1,0,0,1,0.0680118,-0.647113)">
                        <g transform="matrix(1,0,0,-1,76.7751,61.5604)">
                            <path d="M0,-66.309C0.676,-66.444 1.031,-66.281 1.135,-65.732L2.104,-61.13C2.289,-60.525 2.043,-60.226 1.356,-60.097L0.944,-60.007L0.778,-59.971C-18.778,-55.619 -32.955,-37.933 -32.955,-17.851C-32.955,-12.01 -31.774,-6.391 -29.623,-1.248L-29.497,-0.89C-29.337,-0.409 -29.627,0.122 -30.116,0.122L-35.226,0.118C-35.819,0.135 -36.079,-0.174 -36.313,-0.9C-38.258,-6.219 -39.313,-11.935 -39.313,-17.851C-39.313,-29.213 -35.368,-40.311 -28.205,-49.103C-21.171,-57.736 -11.349,-63.802 -0.537,-66.192C-0.496,-66.201 -0.455,-66.21 -0.414,-66.219" style="fill:rgb(152,156,163);fill-rule:nonzero;"/>
                        </g>
                        <g transform="matrix(1,0,0,-1,56.26,112.541)">
                            <path d="M0,49.877C-2.729,44.874 -4.264,39.154 -4.264,33.129C-4.264,16.521 7.296,2.333 23.403,-1.08L23.516,-1.102C24.192,-1.238 24.546,-1.074 24.65,-0.525L25.619,4.077C25.805,4.681 25.559,4.98 24.872,5.11L24.823,5.12C11.597,7.874 2.095,19.506 2.095,33.129C2.095,39.293 4.058,45.065 7.437,49.789L7.615,50.091C7.834,50.533 7.415,51.099 7.057,51.103L1.375,51.099C0.782,51.115 0.526,50.892 0.104,50.08L0,49.877Z" style="fill:rgb(152,156,163);fill-rule:nonzero;"/>
                        </g>
                    </g>
                </g>
            </g>
        </g>
    </g>
</svg>
