<?xml version="1.0" encoding="UTF-8" standalone="no"?>
<!DOCTYPE svg PUBLIC "-//W3C//DTD SVG 1.1//EN" "http://www.w3.org/Graphics/SVG/1.1/DTD/svg11.dtd">
<svg width="100%" height="100%" viewBox="0 0 281 82" version="1.1" xmlns="http://www.w3.org/2000/svg" xmlns:xlink="http://www.w3.org/1999/xlink" xml:space="preserve" xmlns:serif="http://www.serif.com/" style="fill-rule:evenodd;clip-rule:evenodd;stroke-linejoin:round;stroke-miterlimit:2;">
    <g transform="matrix(1,0,0,0.643102,0,0)">
        <rect id="ArtBoard1" x="0" y="0" width="280.49" height="127.49" style="fill:none;"/>
        <clipPath id="_clip1">
            <rect id="ArtBoard11" serif:id="ArtBoard1" x="0" y="0" width="280.49" height="127.49"/>
        </clipPath>
        <g clip-path="url(#_clip1)">
            <g transform="matrix(1.28291,0,0,1.99488,-38.0384,-73.9702)">
                <path d="M176.26,43.331C176.26,39.881 173.459,37.08 170.009,37.08L149.181,37.08C145.731,37.08 142.93,39.881 142.93,43.331L142.93,64.159C142.93,67.609 145.731,70.41 149.181,70.41L170.009,70.41C173.459,70.41 176.26,67.609 176.26,64.159L176.26,43.331Z" style="fill:rgb(26,23,27);"/>
            </g>
            <g transform="matrix(1.28291,0,0,1.99488,-38.0384,-73.9702)">
                <path d="M140.41,43.331C140.41,39.881 137.609,37.08 134.159,37.08L113.331,37.08C109.881,37.08 107.08,39.881 107.08,43.331L107.08,64.159C107.08,67.609 109.881,70.41 113.331,70.41L134.159,70.41C137.609,70.41 140.41,67.609 140.41,64.159L140.41,43.331Z" style="fill:rgb(26,23,27);"/>
            </g>
            <g transform="matrix(1.28291,0,0,1.99488,-38.0384,-73.9702)">
                <path d="M212.1,43.331C212.1,39.881 209.299,37.08 205.849,37.08L185.021,37.08C181.571,37.08 178.77,39.881 178.77,43.331L178.77,64.159C178.77,67.609 181.571,70.41 185.021,70.41L205.849,70.41C209.299,70.41 212.1,67.609 212.1,64.159L212.1,43.331Z" style="fill:rgb(26,23,27);"/>
            </g>
            <g transform="matrix(1.28291,0,0,1.99488,-38.0384,-73.9702)">
                <path d="M248.07,43.331C248.07,39.881 245.269,37.08 241.819,37.08L220.991,37.08C217.541,37.08 214.74,39.881 214.74,43.331L214.74,64.159C214.74,67.609 217.541,70.41 220.991,70.41L241.819,70.41C245.269,70.41 248.07,67.609 248.07,64.159L248.07,43.331Z" style="fill:rgb(26,23,27);"/>
            </g>
            <g transform="matrix(1.28291,0,0,1.99488,-38.0384,-73.9702)">
                <path d="M117.65,47.37L122.19,47.37L122.19,48.65C122.19,48.65 124.51,46.75 126.5,46.75C126.588,46.745 126.675,46.742 126.763,46.742C129.094,46.742 131.013,48.66 131.013,50.992C131.013,51.045 131.012,51.097 131.01,51.15L131.01,60.77L126.5,60.77L126.5,52.26C126.42,51.484 125.77,50.881 124.99,50.86C123.81,50.72 122.19,52.1 122.19,52.1L122.19,60.77L117.65,60.77L117.65,47.37" style="fill:white;fill-rule:nonzero;"/>
            </g>
            <g transform="matrix(1.28291,0,0,1.99488,-38.0384,-73.9702)">
                <path d="M189.46,47.37L194,47.37L194,48.65C194,48.65 196.31,46.75 198.31,46.75C198.398,46.745 198.485,46.742 198.573,46.742C200.904,46.742 202.823,48.66 202.823,50.992C202.823,51.045 202.822,51.097 202.82,51.15L202.82,60.77L198.31,60.77L198.31,52.26C198.23,51.484 197.58,50.881 196.8,50.86C195.62,50.72 194,52.1 194,52.1L194,60.77L189.46,60.77L189.46,47.37" style="fill:white;fill-rule:nonzero;"/>
            </g>
            <g transform="matrix(1.28291,0,0,1.99488,-38.0384,-73.9702)">
                <path d="M160.86,46.52C165,46.52 165.13,49.43 165.13,49.43L165.13,57.15C165.13,57.75 165.8,57.93 166.47,57.66C166.55,57.66 166.95,60.3 166.95,60.3C165.728,60.714 164.45,60.94 163.16,60.97C161.27,60.97 161.16,59.54 161.16,59.54C161.16,59.54 160.29,61 157,61C154.919,61.007 153.181,59.349 153.09,57.27C152.86,52.08 160.91,52.13 160.91,52.13C160.91,52.13 161.67,49.6 159.11,49.92C157.818,50.217 156.58,50.713 155.44,51.39L153.92,48.96C155.903,47.408 158.342,46.55 160.86,46.52ZM157.32,56.52C157.32,57.37 157.71,57.99 159.09,57.99C159.782,58.069 160.47,57.803 160.93,57.28L160.93,54.51C160.93,54.51 157.32,54.35 157.32,56.51L157.32,56.52Z" style="fill:white;fill-rule:nonzero;"/>
            </g>
            <g transform="matrix(1.28291,0,0,1.99488,-38.0384,-73.9702)">
                <path d="M231.93,46.52C237.15,46.52 239.33,50.09 239.33,53.87C239.335,53.971 239.337,54.073 239.337,54.175C239.337,57.927 236.249,61.015 232.497,61.015C232.348,61.015 232.199,61.01 232.05,61C226.61,61 224.75,57.33 224.75,53.83C224.75,50.05 226.86,46.48 231.93,46.48M229.22,53.83C229.22,55.83 230,57.33 232.04,57.33C234.08,57.33 234.84,55.96 234.86,53.83C234.86,51.37 233.95,50.04 232.04,50.03C230.13,50.02 229.23,51.32 229.22,53.87L229.22,53.83Z" style="fill:white;fill-rule:nonzero;"/>
            </g>
            <g transform="matrix(1.28291,0,0,1.99488,-38.0384,-73.9702)">
                <path d="M120.85,79.48C121.37,79.48 122.14,79.95 122.14,81.48L126.87,81.48L126.87,80.22C126.942,77.714 124.945,75.591 122.44,75.51L111.22,75.51C108.715,75.591 106.718,77.714 106.79,80.22L106.79,86.58C106.718,89.086 108.715,91.209 111.22,91.29L122.47,91.29C124.975,91.209 126.972,89.086 126.9,86.58L126.9,85.2L122.29,85.2C122.29,86.68 121.98,87.42 120.85,87.42L114.15,87.42C112.827,87.409 111.741,86.323 111.73,85L111.73,82C111.73,81.993 111.73,81.987 111.73,81.98C111.73,80.649 112.819,79.551 114.15,79.54L120.85,79.54L120.85,79.48Z" style="fill:white;fill-rule:nonzero;"/>
            </g>
            <g transform="matrix(1.28291,0,0,1.99488,-38.0384,-73.9702)">
                <path d="M176.31,75.56L183.59,75.56L189.03,85.48L194.29,75.56L201.68,75.56L201.68,91.34L197.11,91.34L197.11,80.18L190.79,91.34L187.24,91.34L181.01,80.18L181.01,91.34L176.31,91.34L176.31,75.56Z" style="fill:white;fill-rule:nonzero;"/>
            </g>
            <g transform="matrix(1.28291,0,0,1.99488,-38.0384,-73.9702)">
                <path d="M146.09,85C146.09,85.01 146.09,85.02 146.09,85.03C146.09,86.352 145.012,87.444 143.69,87.46C143.69,87.46 137,87.46 137,87.46C135.661,87.46 134.56,86.359 134.56,85.02C134.56,85.013 134.56,85.007 134.56,85L134.56,82C134.56,81.99 134.56,81.98 134.56,81.97C134.56,80.631 135.661,79.53 137,79.53C137,79.53 143.72,79.53 143.72,79.53C145.042,79.546 146.12,80.638 146.12,81.96C146.12,81.97 146.12,81.98 146.12,81.99L146.09,85ZM150.94,80.32C150.94,77.736 148.814,75.61 146.23,75.61L134.29,75.61C131.706,75.61 129.58,77.736 129.58,80.32L129.58,86.68C129.58,89.264 131.706,91.39 134.29,91.39L146.23,91.39C148.814,91.39 150.94,89.264 150.94,86.68L150.94,80.32Z" style="fill:white;fill-rule:nonzero;"/>
            </g>
            <g transform="matrix(1.28291,0,0,1.99488,-38.0384,-73.9702)">
                <path d="M153.75,78.93C153.75,78.93 154.16,75.56 158.41,75.56L167.82,75.56C167.82,75.56 172.61,75.47 172.62,78.93L172.62,80.55L167.82,80.55C167.82,80 167.82,78.93 166.25,78.93L159.85,78.93C159.795,78.922 159.739,78.918 159.683,78.918C159.058,78.918 158.543,79.432 158.543,80.058C158.543,80.099 158.546,80.139 158.55,80.18C158.549,80.195 158.549,80.209 158.549,80.224C158.549,80.91 159.113,81.474 159.799,81.474C159.833,81.474 159.866,81.473 159.9,81.47C161.56,81.55 167.17,81.58 167.77,81.59C170.42,81.59 173.18,82.34 173.18,85.1C173.18,88.83 173.18,87.77 173.18,87.77C173.18,87.77 173.57,91.34 167.83,91.34L158.42,91.34C158.42,91.34 153.76,91.71 153.76,87.93L153.76,86.22L158.42,86.22L158.42,86.68C158.42,86.68 158.32,87.81 159.82,87.8L167.41,87.8C167.99,87.662 168.377,87.102 168.3,86.51C168.3,85.4 167.51,85.34 167.38,85.31C167.25,85.28 158.38,85.02 158.38,85.02C158.38,85.02 153.72,84.87 153.72,82.19L153.75,78.93Z" style="fill:white;fill-rule:nonzero;"/>
            </g>
            <g transform="matrix(1.28291,0,0,1.99488,-38.0384,-73.9702)">
                <path d="M221.14,85C221.151,86.335 220.065,87.444 218.73,87.46L212,87.46C210.678,87.444 209.6,86.352 209.6,85.03C209.6,85.02 209.6,85.01 209.6,85L209.6,82C209.6,81.99 209.6,81.98 209.6,81.97C209.6,80.648 210.678,79.556 212,79.54L218.72,79.54C220.051,79.551 221.14,80.649 221.14,81.98C221.14,81.987 221.14,81.993 221.14,82L221.14,85ZM226,80.32C226,77.736 223.874,75.61 221.29,75.61L209.34,75.61C206.756,75.61 204.63,77.736 204.63,80.32L204.63,86.68C204.63,89.264 206.756,91.39 209.34,91.39L221.28,91.39C221.283,91.39 221.287,91.39 221.29,91.39C223.874,91.39 226,89.264 226,86.68C226,86.68 226,80.32 226,80.32Z" style="fill:white;fill-rule:nonzero;"/>
            </g>
            <g transform="matrix(1.28291,0,0,1.99488,-38.0384,-73.9702)">
                <path d="M228.8,78.93C228.8,78.93 229.21,75.56 233.46,75.56L242.87,75.56C242.87,75.56 247.66,75.47 247.66,78.93L247.66,80.55L242.87,80.55C242.87,80 242.87,78.93 241.29,78.93L234.9,78.93C234.845,78.922 234.789,78.918 234.733,78.918C234.108,78.918 233.593,79.432 233.593,80.058C233.593,80.099 233.596,80.139 233.6,80.18C233.599,80.196 233.599,80.213 233.599,80.229C233.599,80.915 234.163,81.479 234.849,81.479C234.899,81.479 234.95,81.476 235,81.47C236.65,81.55 242.27,81.58 242.87,81.59C245.51,81.59 248.28,82.34 248.28,85.1C248.28,88.83 248.28,87.77 248.28,87.77C248.28,87.77 248.66,91.34 242.93,91.34L233.52,91.34C233.52,91.34 228.86,91.71 228.86,87.93L228.86,86.22L233.52,86.22L233.52,86.68C233.52,86.68 233.41,87.81 234.91,87.8L242.51,87.8C243.09,87.662 243.477,87.102 243.4,86.51C243.4,85.4 242.6,85.34 242.48,85.31C242.36,85.28 233.48,85.02 233.48,85.02C233.48,85.02 228.82,84.87 228.82,82.19L228.8,78.93Z" style="fill:white;fill-rule:nonzero;"/>
            </g>
            <g transform="matrix(1.28291,0,0,1.99488,-38.0384,-73.9702)">
                <path d="M73,66.8C72.27,67.63 73.74,68.64 74.41,70.17C75.08,71.7 75.41,73.72 76.62,75.87C78.073,78.31 79.308,80.873 80.31,83.53C81.209,85.964 82.268,88.336 83.48,90.63C84.008,91.621 84.596,92.58 85.24,93.5C85.8,94.5 85.82,95.59 84.66,96.14C83.5,96.69 82.66,96.58 81.52,95.23C80.25,93.67 80.52,90.88 79.19,88.8C77.86,86.72 77.9,85.24 76.74,83.8C75.58,82.36 71.84,74.8 70.99,73.17C70.54,72.34 70.69,70.87 69.57,70.87C68.16,70.87 68.04,74.61 68.04,76.08C68.04,77.55 67.21,78.72 67.19,80.25C67.306,82.055 67.158,83.868 66.75,85.63C66.087,88.86 65.719,92.143 65.65,95.44C65.65,97.77 66.02,98.51 65.1,99.67C64.18,100.83 62.23,100.53 61.91,99.37C61.5,97.82 62.28,97.59 62.46,95.75C62.64,93.91 62.97,91.75 63.32,89.81C63.88,86.81 63.49,86.88 63.62,84.3C63.75,81.72 64.36,79.3 64.62,77C64.88,74.7 64.99,70.87 64.56,70C64.13,69.13 63.76,68.59 62.56,68.89C59.87,69.651 57.487,71.24 55.75,73.43C54.75,74.82 52.75,75.7 51.83,76.55C50.91,77.4 46.36,79.89 43.19,83.42C41.97,84.79 41.05,85.5 40.5,86.11C40.149,86.416 39.698,86.585 39.232,86.585C38.543,86.585 37.904,86.217 37.56,85.62C37.383,85.278 37.29,84.897 37.29,84.512C37.29,83.562 37.852,82.696 38.72,82.31C41.19,80.9 47.45,75.03 49.04,74.4C49.719,74.078 50.374,73.707 51,73.29C52.024,72.694 52.931,71.918 53.68,71C54.05,70.33 54.6,69.71 53.68,70.08C52.974,70.353 52.355,70.813 51.89,71.41C51.4,71.96 50.45,71.7 49.46,72.59C48.47,73.48 47.74,73.51 46.46,74.43C45.18,75.35 38.26,80.06 37.64,80.68C37.02,81.3 35,82.06 34.41,81C33.82,79.94 33.67,78.93 35.41,77.81C37.47,76.5 41.93,74.25 43.27,73.18C44.61,72.11 49.14,69.97 52.14,67.88C55.14,65.79 57.89,63.88 58.39,63.47C58.7,63.21 58.69,62.6 58.02,62.31C55.339,61.07 52.524,60.144 49.63,59.55C47.95,59.19 34.23,55.81 32.41,55.63C31.01,55.49 29.65,55.15 29.65,53.71C29.65,52.49 30.59,52.18 31.31,52.01C33,51.63 37.43,53.61 40.01,53.79C42.59,53.97 50.55,57.22 52.45,57.22C54.35,57.22 57.4,58.59 57.96,57.65C58.17,57.19 57.65,56.65 56.39,55.65C51.63,51.68 39.55,43.62 35.67,42C33.89,41.25 34.05,39.78 34.56,39.08C35.07,38.38 35.4,37.83 36.77,38.2C38.62,38.69 42.77,42.2 48.43,46.02C54,49.7 60,53.26 61.83,53.77C62.964,53.931 64.005,54.487 64.77,55.34C65.51,56.34 64.65,57.49 64.16,57.98C63.67,58.47 62.16,60.32 62.5,62.21C63.272,64.965 65.896,66.816 68.75,66.62C71.15,66.33 72.89,64.121 72.61,61.72C72.49,60 70.47,58.53 70.9,57.18C71.336,56.115 72.241,55.309 73.35,55C75.016,54.381 76.617,53.601 78.13,52.67C79.613,51.742 80.988,50.652 82.23,49.42C84.07,47.89 84.87,47.83 87.13,45.99C89.39,44.15 94.98,38.99 95.71,38.27C96.305,37.665 97.204,37.465 98,37.76C98.896,37.98 99.546,38.768 99.59,39.69C99.591,40.545 99.227,41.36 98.59,41.93C97.18,43 92.59,45.93 91.06,47.07C89.53,48.21 85.91,51.36 84.93,51.97C83.95,52.58 79.47,56.69 77.76,57.79C76.68,58.49 76.01,58.79 75.76,59.51C75.445,60.191 75.608,61.003 76.16,61.51C76.91,62.23 85.9,66.29 87.86,66.84C90.061,67.398 92.211,68.138 94.29,69.05C95.647,69.864 97.142,70.423 98.7,70.7C100.356,70.892 101.997,71.2 103.61,71.62C104.308,71.859 104.78,72.519 104.78,73.257C104.78,73.616 104.668,73.967 104.46,74.26C104.16,74.87 103.51,76.26 100.66,75.36C98.66,74.72 98.38,74.14 95.77,73.12C93.5,72.23 92.42,72.48 90.4,71.74C88.38,71 88.9,70.4 84.55,69.05C80.2,67.7 76.99,67.13 75.55,66.72C74.74,66.54 73.67,66.09 73,66.8Z" style="fill:white;fill-rule:nonzero;"/>
            </g>
        </g>
    </g>
</svg>
